<svg width="447" height="386" viewBox="0 0 447 386" fill="none" xmlns="http://www.w3.org/2000/svg">
<g clip-path="url(#clip0_1_4615)">
<path opacity="0.4" d="M1.24609 274.669C1.24609 350.387 43.7538 384.926 94.2337 384.926C146.042 384.926 188.548 343.745 188.548 291.938C188.548 242.788 146.041 197.622 94.2337 197.622H70.3204C79.621 121.903 122.131 48.8416 192.531 20.9456V19.6173L183.236 1.01953C58.3677 48.8416 1.24609 172.382 1.24609 274.669ZM254.971 274.669C254.971 350.387 297.48 384.926 347.958 384.926C401.094 384.926 443.602 343.745 443.602 291.938C443.602 242.788 401.092 197.622 347.958 197.622H325.372C334.673 121.904 375.852 48.8428 446.258 20.9456V19.6173L436.958 1.01953C312.09 48.8416 254.971 172.382 254.971 274.669Z" stroke="white" stroke-width="1.11812"/>
</g>
<defs>
<clipPath id="clip0_1_4615">
<rect width="446.131" height="385.169" fill="white" transform="translate(0.6875 0.316406)"/>
</clipPath>
</defs>
</svg>
