<svg width="358" height="64" viewBox="0 0 358 64" fill="none" xmlns="http://www.w3.org/2000/svg">
<rect x="23.3333" y="30.3333" width="23.3333" height="23.3333" rx="11.6667" fill="#EDB700"/>
<rect x="23.3333" y="10.6667" width="23.3333" height="23.3333" rx="11.6667" fill="#D40072"/>
<rect x="3.66667" y="10.6667" width="23.3333" height="23.3333" rx="11.6667" fill="#00AAD2"/>
<path fill-rule="evenodd" clip-rule="evenodd" d="M15.2883 30.4234C8.86985 30.4234 3.66667 35.6266 3.66667 42.045C3.66667 48.4635 8.86985 53.6667 15.2883 53.6667C19.4589 53.6667 23.1164 51.4698 25.1667 48.1701C24.0616 46.3917 23.4234 44.2929 23.4234 42.045C23.4234 39.7972 24.0616 37.6984 25.1667 35.92C23.1164 32.6203 19.4589 30.4234 15.2883 30.4234Z" fill="#292524"/>
<path d="M80.8295 25.2386C80.5455 24.3182 80.1534 23.4943 79.6534 22.767C79.1648 22.0284 78.5739 21.3977 77.8807 20.875C77.1989 20.3523 76.4148 19.9602 75.5284 19.6989C74.642 19.4261 73.6761 19.2898 72.6307 19.2898C70.7557 19.2898 69.0852 19.7614 67.6193 20.7045C66.1534 21.6477 65 23.0341 64.1591 24.8636C63.3295 26.6818 62.9148 28.8977 62.9148 31.5114C62.9148 34.1477 63.3295 36.3807 64.1591 38.2102C64.9886 40.0398 66.142 41.4318 67.6193 42.3864C69.0966 43.3295 70.8125 43.8011 72.767 43.8011C74.5398 43.8011 76.0739 43.4602 77.3693 42.7784C78.6761 42.0966 79.6818 41.1307 80.3864 39.8807C81.0909 38.6193 81.4432 37.142 81.4432 35.4489L82.875 35.6705H73.3977V30.7273H87.5625V34.9205C87.5625 37.9091 86.9261 40.4943 85.6534 42.6761C84.3807 44.858 82.6307 46.5398 80.4034 47.7216C78.1761 48.892 75.6193 49.4773 72.733 49.4773C69.517 49.4773 66.6932 48.7557 64.2614 47.3125C61.8409 45.858 59.9489 43.7955 58.5852 41.125C57.233 38.4432 56.5568 35.2614 56.5568 31.5795C56.5568 28.7614 56.9545 26.2443 57.75 24.0284C58.5568 21.8125 59.6818 19.9318 61.125 18.3864C62.5682 16.8295 64.2614 15.6477 66.2045 14.8409C68.1477 14.0227 70.2614 13.6136 72.5455 13.6136C74.4773 13.6136 76.2784 13.8977 77.9489 14.4659C79.6193 15.0227 81.1023 15.8182 82.3977 16.8523C83.7045 17.8864 84.7784 19.1136 85.6193 20.5341C86.4602 21.9545 87.0114 23.5227 87.2727 25.2386H80.8295ZM91.0048 49V22.8182H96.9878V27.1818H97.2605C97.7378 25.6705 98.556 24.5057 99.7151 23.6875C100.886 22.858 102.221 22.4432 103.721 22.4432C104.062 22.4432 104.442 22.4602 104.863 22.4943C105.295 22.517 105.653 22.5568 105.937 22.6136V28.2898C105.675 28.1989 105.261 28.1193 104.692 28.0511C104.136 27.9716 103.596 27.9318 103.073 27.9318C101.948 27.9318 100.937 28.1761 100.039 28.6648C99.1526 29.142 98.4537 29.8068 97.9423 30.6591C97.431 31.5114 97.1753 32.4943 97.1753 33.608V49H91.0048ZM114.701 49.5284C113.042 49.5284 111.548 49.233 110.218 48.642C108.9 48.0398 107.855 47.1534 107.082 45.983C106.321 44.8125 105.94 43.3693 105.94 41.6534C105.94 40.1761 106.213 38.9545 106.758 37.9886C107.304 37.0227 108.048 36.25 108.991 35.6705C109.934 35.0909 110.997 34.6534 112.179 34.358C113.372 34.0511 114.605 33.8295 115.878 33.6932C117.412 33.5341 118.656 33.392 119.611 33.267C120.565 33.1307 121.258 32.9261 121.69 32.6534C122.133 32.3693 122.355 31.9318 122.355 31.3409V31.2386C122.355 29.9545 121.974 28.9602 121.213 28.2557C120.451 27.5511 119.355 27.1989 117.923 27.1989C116.412 27.1989 115.213 27.5284 114.326 28.1875C113.451 28.8466 112.861 29.625 112.554 30.5227L106.792 29.7045C107.247 28.1136 107.997 26.7841 109.042 25.7159C110.088 24.6364 111.366 23.8295 112.878 23.2955C114.389 22.75 116.059 22.4773 117.889 22.4773C119.15 22.4773 120.406 22.625 121.656 22.9205C122.906 23.2159 124.048 23.7045 125.082 24.3864C126.116 25.0568 126.946 25.9716 127.571 27.1307C128.207 28.2898 128.525 29.7386 128.525 31.4773V49H122.593V45.4034H122.389C122.014 46.1307 121.486 46.8125 120.804 47.4489C120.133 48.0739 119.287 48.5795 118.264 48.9659C117.253 49.3409 116.065 49.5284 114.701 49.5284ZM116.304 44.9943C117.542 44.9943 118.616 44.75 119.525 44.2614C120.434 43.7614 121.133 43.1023 121.622 42.2841C122.122 41.4659 122.372 40.5739 122.372 39.608V36.5227C122.179 36.6818 121.849 36.8295 121.383 36.9659C120.929 37.1023 120.417 37.2216 119.849 37.3239C119.281 37.4261 118.718 37.517 118.162 37.5966C117.605 37.6761 117.122 37.7443 116.713 37.8011C115.792 37.9261 114.968 38.1307 114.241 38.4148C113.514 38.6989 112.94 39.0966 112.52 39.608C112.099 40.108 111.889 40.7557 111.889 41.5511C111.889 42.6875 112.304 43.5455 113.133 44.125C113.963 44.7045 115.02 44.9943 116.304 44.9943ZM132.33 58.8182V22.8182H138.398V27.1477H138.756C139.074 26.5114 139.523 25.8352 140.103 25.1193C140.682 24.392 141.466 23.7727 142.455 23.2614C143.443 22.7386 144.705 22.4773 146.239 22.4773C148.262 22.4773 150.086 22.9943 151.711 24.0284C153.347 25.0511 154.642 26.5682 155.597 28.5795C156.563 30.5795 157.046 33.0341 157.046 35.9432C157.046 38.8182 156.574 41.2614 155.631 43.2727C154.688 45.2841 153.404 46.8182 151.779 47.875C150.154 48.9318 148.313 49.4602 146.256 49.4602C144.756 49.4602 143.512 49.2102 142.523 48.7102C141.534 48.2102 140.739 47.608 140.137 46.9034C139.546 46.1875 139.086 45.5114 138.756 44.875H138.5V58.8182H132.33ZM138.381 35.9091C138.381 37.6023 138.62 39.0852 139.097 40.358C139.586 41.6307 140.284 42.625 141.193 43.3409C142.114 44.0455 143.228 44.3977 144.534 44.3977C145.898 44.3977 147.04 44.0341 147.961 43.3068C148.881 42.5682 149.574 41.5625 150.04 40.2898C150.517 39.0057 150.756 37.5455 150.756 35.9091C150.756 34.2841 150.523 32.8409 150.057 31.5795C149.591 30.3182 148.898 29.3295 147.978 28.6136C147.057 27.8977 145.909 27.5398 144.534 27.5398C143.216 27.5398 142.097 27.8864 141.176 28.5795C140.256 29.2727 139.557 30.2443 139.08 31.4943C138.614 32.7443 138.381 34.2159 138.381 35.9091ZM166.1 33.6591V49H159.93V14.0909H165.964V27.267H166.271C166.884 25.7898 167.833 24.625 169.117 23.7727C170.413 22.9091 172.061 22.4773 174.061 22.4773C175.879 22.4773 177.464 22.858 178.816 23.6193C180.168 24.3807 181.214 25.4943 181.953 26.9602C182.703 28.4261 183.078 30.2159 183.078 32.3295V49H176.907V33.2841C176.907 31.5227 176.453 30.1534 175.543 29.1761C174.646 28.1875 173.384 27.6932 171.759 27.6932C170.668 27.6932 169.691 27.9318 168.828 28.4091C167.975 28.875 167.305 29.5511 166.816 30.4375C166.339 31.3239 166.1 32.3977 166.1 33.6591ZM186.967 49V22.8182H193.138V49H186.967ZM190.07 19.1023C189.092 19.1023 188.251 18.7784 187.547 18.1307C186.842 17.4716 186.49 16.6818 186.49 15.7614C186.49 14.8295 186.842 14.0398 187.547 13.392C188.251 12.733 189.092 12.4034 190.07 12.4034C191.058 12.4034 191.899 12.733 192.592 13.392C193.297 14.0398 193.649 14.8295 193.649 15.7614C193.649 16.6818 193.297 17.4716 192.592 18.1307C191.899 18.7784 191.058 19.1023 190.07 19.1023ZM202.128 22.8182L207.413 32.483L212.782 22.8182H219.31L211.418 35.9091L219.447 49H212.952L207.413 39.5739L201.924 49H195.378L203.356 35.9091L195.583 22.8182H202.128ZM250.636 25.8693H244.261C244.08 24.8239 243.744 23.8977 243.256 23.0909C242.767 22.2727 242.159 21.5795 241.432 21.0114C240.705 20.4432 239.875 20.017 238.943 19.733C238.023 19.4375 237.028 19.2898 235.96 19.2898C234.063 19.2898 232.381 19.767 230.915 20.7216C229.449 21.6648 228.301 23.0511 227.472 24.8807C226.642 26.6989 226.227 28.9205 226.227 31.5455C226.227 34.2159 226.642 36.4659 227.472 38.2955C228.313 40.1136 229.46 41.4886 230.915 42.4205C232.381 43.3409 234.057 43.8011 235.943 43.8011C236.989 43.8011 237.966 43.6648 238.875 43.392C239.795 43.108 240.619 42.6932 241.347 42.1477C242.085 41.6023 242.705 40.9318 243.205 40.1364C243.716 39.3409 244.068 38.4318 244.261 37.4091L250.636 37.4432C250.398 39.1023 249.881 40.6591 249.085 42.1136C248.301 43.5682 247.273 44.8523 246 45.9659C244.727 47.0682 243.239 47.9318 241.534 48.5568C239.83 49.1705 237.938 49.4773 235.858 49.4773C232.79 49.4773 230.051 48.767 227.642 47.3466C225.233 45.9261 223.335 43.875 221.949 41.1932C220.563 38.5114 219.869 35.2955 219.869 31.5455C219.869 27.7841 220.568 24.5682 221.966 21.8977C223.364 19.2159 225.267 17.1648 227.676 15.7443C230.085 14.3239 232.813 13.6136 235.858 13.6136C237.801 13.6136 239.608 13.8864 241.278 14.4318C242.949 14.9773 244.438 15.7784 245.744 16.8352C247.051 17.8807 248.125 19.1648 248.966 20.6875C249.818 22.1989 250.375 23.9261 250.636 25.8693ZM265.175 49.5114C262.618 49.5114 260.403 48.9489 258.528 47.8239C256.653 46.6989 255.198 45.125 254.164 43.1023C253.141 41.0795 252.63 38.7159 252.63 36.0114C252.63 33.3068 253.141 30.9375 254.164 28.9034C255.198 26.8693 256.653 25.2898 258.528 24.1648C260.403 23.0398 262.618 22.4773 265.175 22.4773C267.732 22.4773 269.948 23.0398 271.823 24.1648C273.698 25.2898 275.147 26.8693 276.17 28.9034C277.204 30.9375 277.721 33.3068 277.721 36.0114C277.721 38.7159 277.204 41.0795 276.17 43.1023C275.147 45.125 273.698 46.6989 271.823 47.8239C269.948 48.9489 267.732 49.5114 265.175 49.5114ZM265.209 44.5682C266.596 44.5682 267.755 44.1875 268.687 43.4261C269.618 42.6534 270.312 41.6193 270.766 40.3239C271.232 39.0284 271.465 37.5852 271.465 35.9943C271.465 34.392 271.232 32.9432 270.766 31.6477C270.312 30.3409 269.618 29.3011 268.687 28.5284C267.755 27.7557 266.596 27.3693 265.209 27.3693C263.789 27.3693 262.607 27.7557 261.664 28.5284C260.732 29.3011 260.033 30.3409 259.567 31.6477C259.113 32.9432 258.886 34.392 258.886 35.9943C258.886 37.5852 259.113 39.0284 259.567 40.3239C260.033 41.6193 260.732 42.6534 261.664 43.4261C262.607 44.1875 263.789 44.5682 265.209 44.5682ZM286.728 14.0909V49H280.558V14.0909H286.728ZM296.844 14.0909V49H290.674V14.0909H296.844ZM308.323 49.5284C306.664 49.5284 305.17 49.233 303.84 48.642C302.522 48.0398 301.477 47.1534 300.704 45.983C299.943 44.8125 299.562 43.3693 299.562 41.6534C299.562 40.1761 299.835 38.9545 300.38 37.9886C300.926 37.0227 301.67 36.25 302.613 35.6705C303.556 35.0909 304.619 34.6534 305.801 34.358C306.994 34.0511 308.227 33.8295 309.499 33.6932C311.034 33.5341 312.278 33.392 313.232 33.267C314.187 33.1307 314.88 32.9261 315.312 32.6534C315.755 32.3693 315.977 31.9318 315.977 31.3409V31.2386C315.977 29.9545 315.596 28.9602 314.835 28.2557C314.073 27.5511 312.977 27.1989 311.545 27.1989C310.034 27.1989 308.835 27.5284 307.948 28.1875C307.073 28.8466 306.482 29.625 306.176 30.5227L300.414 29.7045C300.869 28.1136 301.619 26.7841 302.664 25.7159C303.71 24.6364 304.988 23.8295 306.499 23.2955C308.011 22.75 309.681 22.4773 311.511 22.4773C312.772 22.4773 314.028 22.625 315.278 22.9205C316.528 23.2159 317.67 23.7045 318.704 24.3864C319.738 25.0568 320.568 25.9716 321.193 27.1307C321.829 28.2898 322.147 29.7386 322.147 31.4773V49H316.215V45.4034H316.011C315.636 46.1307 315.107 46.8125 314.426 47.4489C313.755 48.0739 312.909 48.5795 311.886 48.9659C310.874 49.3409 309.687 49.5284 308.323 49.5284ZM309.926 44.9943C311.164 44.9943 312.238 44.75 313.147 44.2614C314.056 43.7614 314.755 43.1023 315.244 42.2841C315.744 41.4659 315.994 40.5739 315.994 39.608V36.5227C315.801 36.6818 315.471 36.8295 315.005 36.9659C314.551 37.1023 314.039 37.2216 313.471 37.3239C312.903 37.4261 312.34 37.517 311.784 37.5966C311.227 37.6761 310.744 37.7443 310.335 37.8011C309.414 37.9261 308.59 38.1307 307.863 38.4148C307.136 38.6989 306.562 39.0966 306.141 39.608C305.721 40.108 305.511 40.7557 305.511 41.5511C305.511 42.6875 305.926 43.5455 306.755 44.125C307.585 44.7045 308.641 44.9943 309.926 44.9943ZM326.224 49V14.0909H332.395V27.1477H332.651C332.969 26.5114 333.418 25.8352 333.997 25.1193C334.577 24.392 335.361 23.7727 336.349 23.2614C337.338 22.7386 338.599 22.4773 340.134 22.4773C342.156 22.4773 343.98 22.9943 345.605 24.0284C347.241 25.0511 348.537 26.5682 349.491 28.5795C350.457 30.5795 350.94 33.0341 350.94 35.9432C350.94 38.8182 350.469 41.2614 349.526 43.2727C348.582 45.2841 347.298 46.8182 345.673 47.875C344.048 48.9318 342.207 49.4602 340.151 49.4602C338.651 49.4602 337.406 49.2102 336.418 48.7102C335.429 48.2102 334.634 47.608 334.031 46.9034C333.44 46.1875 332.98 45.5114 332.651 44.875H332.293V49H326.224ZM332.276 35.9091C332.276 37.6023 332.514 39.0852 332.991 40.358C333.48 41.6307 334.179 42.625 335.088 43.3409C336.009 44.0455 337.122 44.3977 338.429 44.3977C339.793 44.3977 340.935 44.0341 341.855 43.3068C342.776 42.5682 343.469 41.5625 343.935 40.2898C344.412 39.0057 344.651 37.5455 344.651 35.9091C344.651 34.2841 344.418 32.8409 343.952 31.5795C343.486 30.3182 342.793 29.3295 341.872 28.6136C340.952 27.8977 339.804 27.5398 338.429 27.5398C337.111 27.5398 335.991 27.8864 335.071 28.5795C334.151 29.2727 333.452 30.2443 332.974 31.4943C332.509 32.7443 332.276 34.2159 332.276 35.9091Z" fill="#292524"/>
</svg>
