<svg width="362" height="64" viewBox="0 0 362 64" fill="none" xmlns="http://www.w3.org/2000/svg">
<g clip-path="url(#clip0_1003_5805)">
<rect x="22.3333" y="28" width="42" height="42" rx="21" fill="#EDB700"/>
<rect x="22.3333" y="-6.33333" width="42" height="42" rx="21" fill="#D40072"/>
<rect x="-12" y="-6.33333" width="42" height="42" rx="21" fill="#00AAD2"/>
<path fill-rule="evenodd" clip-rule="evenodd" d="M9.00917 27.9817C-2.59387 27.9817 -12 37.3878 -12 48.9908C-12 60.5939 -2.59387 70 9.00917 70C16.0949 70 22.3613 66.4922 26.1667 61.1184C23.7407 57.6925 22.315 53.5081 22.315 48.9908C22.315 44.4735 23.7407 40.2892 26.1667 36.8633C22.3613 31.4895 16.0949 27.9817 9.00917 27.9817Z" fill="#292524"/>
</g>
<path d="M84.8295 25.2386C84.5455 24.3182 84.1534 23.4943 83.6534 22.767C83.1648 22.0284 82.5739 21.3977 81.8807 20.875C81.1989 20.3523 80.4148 19.9602 79.5284 19.6989C78.642 19.4261 77.6761 19.2898 76.6307 19.2898C74.7557 19.2898 73.0852 19.7614 71.6193 20.7045C70.1534 21.6477 69 23.0341 68.1591 24.8636C67.3295 26.6818 66.9148 28.8977 66.9148 31.5114C66.9148 34.1477 67.3295 36.3807 68.1591 38.2102C68.9886 40.0398 70.142 41.4318 71.6193 42.3864C73.0966 43.3295 74.8125 43.8011 76.767 43.8011C78.5398 43.8011 80.0739 43.4602 81.3693 42.7784C82.6761 42.0966 83.6818 41.1307 84.3864 39.8807C85.0909 38.6193 85.4432 37.142 85.4432 35.4489L86.875 35.6705H77.3977V30.7273H91.5625V34.9205C91.5625 37.9091 90.9261 40.4943 89.6534 42.6761C88.3807 44.858 86.6307 46.5398 84.4034 47.7216C82.1761 48.892 79.6193 49.4773 76.733 49.4773C73.517 49.4773 70.6932 48.7557 68.2614 47.3125C65.8409 45.858 63.9489 43.7955 62.5852 41.125C61.233 38.4432 60.5568 35.2614 60.5568 31.5795C60.5568 28.7614 60.9545 26.2443 61.75 24.0284C62.5568 21.8125 63.6818 19.9318 65.125 18.3864C66.5682 16.8295 68.2614 15.6477 70.2045 14.8409C72.1477 14.0227 74.2614 13.6136 76.5455 13.6136C78.4773 13.6136 80.2784 13.8977 81.9489 14.4659C83.6193 15.0227 85.1023 15.8182 86.3977 16.8523C87.7045 17.8864 88.7784 19.1136 89.6193 20.5341C90.4602 21.9545 91.0114 23.5227 91.2727 25.2386H84.8295ZM95.0048 49V22.8182H100.988V27.1818H101.261C101.738 25.6705 102.556 24.5057 103.715 23.6875C104.886 22.858 106.221 22.4432 107.721 22.4432C108.062 22.4432 108.442 22.4602 108.863 22.4943C109.295 22.517 109.653 22.5568 109.937 22.6136V28.2898C109.675 28.1989 109.261 28.1193 108.692 28.0511C108.136 27.9716 107.596 27.9318 107.073 27.9318C105.948 27.9318 104.937 28.1761 104.039 28.6648C103.153 29.142 102.454 29.8068 101.942 30.6591C101.431 31.5114 101.175 32.4943 101.175 33.608V49H95.0048ZM118.701 49.5284C117.042 49.5284 115.548 49.233 114.218 48.642C112.9 48.0398 111.855 47.1534 111.082 45.983C110.321 44.8125 109.94 43.3693 109.94 41.6534C109.94 40.1761 110.213 38.9545 110.758 37.9886C111.304 37.0227 112.048 36.25 112.991 35.6705C113.934 35.0909 114.997 34.6534 116.179 34.358C117.372 34.0511 118.605 33.8295 119.878 33.6932C121.412 33.5341 122.656 33.392 123.611 33.267C124.565 33.1307 125.258 32.9261 125.69 32.6534C126.133 32.3693 126.355 31.9318 126.355 31.3409V31.2386C126.355 29.9545 125.974 28.9602 125.213 28.2557C124.451 27.5511 123.355 27.1989 121.923 27.1989C120.412 27.1989 119.213 27.5284 118.326 28.1875C117.451 28.8466 116.861 29.625 116.554 30.5227L110.792 29.7045C111.247 28.1136 111.997 26.7841 113.042 25.7159C114.088 24.6364 115.366 23.8295 116.878 23.2955C118.389 22.75 120.059 22.4773 121.889 22.4773C123.15 22.4773 124.406 22.625 125.656 22.9205C126.906 23.2159 128.048 23.7045 129.082 24.3864C130.116 25.0568 130.946 25.9716 131.571 27.1307C132.207 28.2898 132.525 29.7386 132.525 31.4773V49H126.593V45.4034H126.389C126.014 46.1307 125.486 46.8125 124.804 47.4489C124.133 48.0739 123.287 48.5795 122.264 48.9659C121.253 49.3409 120.065 49.5284 118.701 49.5284ZM120.304 44.9943C121.542 44.9943 122.616 44.75 123.525 44.2614C124.434 43.7614 125.133 43.1023 125.622 42.2841C126.122 41.4659 126.372 40.5739 126.372 39.608V36.5227C126.179 36.6818 125.849 36.8295 125.383 36.9659C124.929 37.1023 124.417 37.2216 123.849 37.3239C123.281 37.4261 122.718 37.517 122.162 37.5966C121.605 37.6761 121.122 37.7443 120.713 37.8011C119.792 37.9261 118.968 38.1307 118.241 38.4148C117.514 38.6989 116.94 39.0966 116.52 39.608C116.099 40.108 115.889 40.7557 115.889 41.5511C115.889 42.6875 116.304 43.5455 117.133 44.125C117.963 44.7045 119.02 44.9943 120.304 44.9943ZM136.33 58.8182V22.8182H142.398V27.1477H142.756C143.074 26.5114 143.523 25.8352 144.103 25.1193C144.682 24.392 145.466 23.7727 146.455 23.2614C147.443 22.7386 148.705 22.4773 150.239 22.4773C152.262 22.4773 154.086 22.9943 155.711 24.0284C157.347 25.0511 158.642 26.5682 159.597 28.5795C160.563 30.5795 161.046 33.0341 161.046 35.9432C161.046 38.8182 160.574 41.2614 159.631 43.2727C158.688 45.2841 157.404 46.8182 155.779 47.875C154.154 48.9318 152.313 49.4602 150.256 49.4602C148.756 49.4602 147.512 49.2102 146.523 48.7102C145.534 48.2102 144.739 47.608 144.137 46.9034C143.546 46.1875 143.086 45.5114 142.756 44.875H142.5V58.8182H136.33ZM142.381 35.9091C142.381 37.6023 142.62 39.0852 143.097 40.358C143.586 41.6307 144.284 42.625 145.193 43.3409C146.114 44.0455 147.228 44.3977 148.534 44.3977C149.898 44.3977 151.04 44.0341 151.961 43.3068C152.881 42.5682 153.574 41.5625 154.04 40.2898C154.517 39.0057 154.756 37.5455 154.756 35.9091C154.756 34.2841 154.523 32.8409 154.057 31.5795C153.591 30.3182 152.898 29.3295 151.978 28.6136C151.057 27.8977 149.909 27.5398 148.534 27.5398C147.216 27.5398 146.097 27.8864 145.176 28.5795C144.256 29.2727 143.557 30.2443 143.08 31.4943C142.614 32.7443 142.381 34.2159 142.381 35.9091ZM170.1 33.6591V49H163.93V14.0909H169.964V27.267H170.271C170.884 25.7898 171.833 24.625 173.117 23.7727C174.413 22.9091 176.061 22.4773 178.061 22.4773C179.879 22.4773 181.464 22.858 182.816 23.6193C184.168 24.3807 185.214 25.4943 185.953 26.9602C186.703 28.4261 187.078 30.2159 187.078 32.3295V49H180.907V33.2841C180.907 31.5227 180.453 30.1534 179.543 29.1761C178.646 28.1875 177.384 27.6932 175.759 27.6932C174.668 27.6932 173.691 27.9318 172.828 28.4091C171.975 28.875 171.305 29.5511 170.816 30.4375C170.339 31.3239 170.1 32.3977 170.1 33.6591ZM190.967 49V22.8182H197.138V49H190.967ZM194.07 19.1023C193.092 19.1023 192.251 18.7784 191.547 18.1307C190.842 17.4716 190.49 16.6818 190.49 15.7614C190.49 14.8295 190.842 14.0398 191.547 13.392C192.251 12.733 193.092 12.4034 194.07 12.4034C195.058 12.4034 195.899 12.733 196.592 13.392C197.297 14.0398 197.649 14.8295 197.649 15.7614C197.649 16.6818 197.297 17.4716 196.592 18.1307C195.899 18.7784 195.058 19.1023 194.07 19.1023ZM206.128 22.8182L211.413 32.483L216.782 22.8182H223.31L215.418 35.9091L223.447 49H216.952L211.413 39.5739L205.924 49H199.378L207.356 35.9091L199.583 22.8182H206.128ZM254.636 25.8693H248.261C248.08 24.8239 247.744 23.8977 247.256 23.0909C246.767 22.2727 246.159 21.5795 245.432 21.0114C244.705 20.4432 243.875 20.017 242.943 19.733C242.023 19.4375 241.028 19.2898 239.96 19.2898C238.063 19.2898 236.381 19.767 234.915 20.7216C233.449 21.6648 232.301 23.0511 231.472 24.8807C230.642 26.6989 230.227 28.9205 230.227 31.5455C230.227 34.2159 230.642 36.4659 231.472 38.2955C232.313 40.1136 233.46 41.4886 234.915 42.4205C236.381 43.3409 238.057 43.8011 239.943 43.8011C240.989 43.8011 241.966 43.6648 242.875 43.392C243.795 43.108 244.619 42.6932 245.347 42.1477C246.085 41.6023 246.705 40.9318 247.205 40.1364C247.716 39.3409 248.068 38.4318 248.261 37.4091L254.636 37.4432C254.398 39.1023 253.881 40.6591 253.085 42.1136C252.301 43.5682 251.273 44.8523 250 45.9659C248.727 47.0682 247.239 47.9318 245.534 48.5568C243.83 49.1705 241.938 49.4773 239.858 49.4773C236.79 49.4773 234.051 48.767 231.642 47.3466C229.233 45.9261 227.335 43.875 225.949 41.1932C224.563 38.5114 223.869 35.2955 223.869 31.5455C223.869 27.7841 224.568 24.5682 225.966 21.8977C227.364 19.2159 229.267 17.1648 231.676 15.7443C234.085 14.3239 236.813 13.6136 239.858 13.6136C241.801 13.6136 243.608 13.8864 245.278 14.4318C246.949 14.9773 248.438 15.7784 249.744 16.8352C251.051 17.8807 252.125 19.1648 252.966 20.6875C253.818 22.1989 254.375 23.9261 254.636 25.8693ZM269.175 49.5114C266.618 49.5114 264.403 48.9489 262.528 47.8239C260.653 46.6989 259.198 45.125 258.164 43.1023C257.141 41.0795 256.63 38.7159 256.63 36.0114C256.63 33.3068 257.141 30.9375 258.164 28.9034C259.198 26.8693 260.653 25.2898 262.528 24.1648C264.403 23.0398 266.618 22.4773 269.175 22.4773C271.732 22.4773 273.948 23.0398 275.823 24.1648C277.698 25.2898 279.147 26.8693 280.17 28.9034C281.204 30.9375 281.721 33.3068 281.721 36.0114C281.721 38.7159 281.204 41.0795 280.17 43.1023C279.147 45.125 277.698 46.6989 275.823 47.8239C273.948 48.9489 271.732 49.5114 269.175 49.5114ZM269.209 44.5682C270.596 44.5682 271.755 44.1875 272.687 43.4261C273.618 42.6534 274.312 41.6193 274.766 40.3239C275.232 39.0284 275.465 37.5852 275.465 35.9943C275.465 34.392 275.232 32.9432 274.766 31.6477C274.312 30.3409 273.618 29.3011 272.687 28.5284C271.755 27.7557 270.596 27.3693 269.209 27.3693C267.789 27.3693 266.607 27.7557 265.664 28.5284C264.732 29.3011 264.033 30.3409 263.567 31.6477C263.113 32.9432 262.886 34.392 262.886 35.9943C262.886 37.5852 263.113 39.0284 263.567 40.3239C264.033 41.6193 264.732 42.6534 265.664 43.4261C266.607 44.1875 267.789 44.5682 269.209 44.5682ZM290.728 14.0909V49H284.558V14.0909H290.728ZM300.844 14.0909V49H294.674V14.0909H300.844ZM312.323 49.5284C310.664 49.5284 309.17 49.233 307.84 48.642C306.522 48.0398 305.477 47.1534 304.704 45.983C303.943 44.8125 303.562 43.3693 303.562 41.6534C303.562 40.1761 303.835 38.9545 304.38 37.9886C304.926 37.0227 305.67 36.25 306.613 35.6705C307.556 35.0909 308.619 34.6534 309.801 34.358C310.994 34.0511 312.227 33.8295 313.499 33.6932C315.034 33.5341 316.278 33.392 317.232 33.267C318.187 33.1307 318.88 32.9261 319.312 32.6534C319.755 32.3693 319.977 31.9318 319.977 31.3409V31.2386C319.977 29.9545 319.596 28.9602 318.835 28.2557C318.073 27.5511 316.977 27.1989 315.545 27.1989C314.034 27.1989 312.835 27.5284 311.948 28.1875C311.073 28.8466 310.482 29.625 310.176 30.5227L304.414 29.7045C304.869 28.1136 305.619 26.7841 306.664 25.7159C307.71 24.6364 308.988 23.8295 310.499 23.2955C312.011 22.75 313.681 22.4773 315.511 22.4773C316.772 22.4773 318.028 22.625 319.278 22.9205C320.528 23.2159 321.67 23.7045 322.704 24.3864C323.738 25.0568 324.568 25.9716 325.193 27.1307C325.829 28.2898 326.147 29.7386 326.147 31.4773V49H320.215V45.4034H320.011C319.636 46.1307 319.107 46.8125 318.426 47.4489C317.755 48.0739 316.909 48.5795 315.886 48.9659C314.874 49.3409 313.687 49.5284 312.323 49.5284ZM313.926 44.9943C315.164 44.9943 316.238 44.75 317.147 44.2614C318.056 43.7614 318.755 43.1023 319.244 42.2841C319.744 41.4659 319.994 40.5739 319.994 39.608V36.5227C319.801 36.6818 319.471 36.8295 319.005 36.9659C318.551 37.1023 318.039 37.2216 317.471 37.3239C316.903 37.4261 316.34 37.517 315.784 37.5966C315.227 37.6761 314.744 37.7443 314.335 37.8011C313.414 37.9261 312.59 38.1307 311.863 38.4148C311.136 38.6989 310.562 39.0966 310.141 39.608C309.721 40.108 309.511 40.7557 309.511 41.5511C309.511 42.6875 309.926 43.5455 310.755 44.125C311.585 44.7045 312.641 44.9943 313.926 44.9943ZM330.224 49V14.0909H336.395V27.1477H336.651C336.969 26.5114 337.418 25.8352 337.997 25.1193C338.577 24.392 339.361 23.7727 340.349 23.2614C341.338 22.7386 342.599 22.4773 344.134 22.4773C346.156 22.4773 347.98 22.9943 349.605 24.0284C351.241 25.0511 352.537 26.5682 353.491 28.5795C354.457 30.5795 354.94 33.0341 354.94 35.9432C354.94 38.8182 354.469 41.2614 353.526 43.2727C352.582 45.2841 351.298 46.8182 349.673 47.875C348.048 48.9318 346.207 49.4602 344.151 49.4602C342.651 49.4602 341.406 49.2102 340.418 48.7102C339.429 48.2102 338.634 47.608 338.031 46.9034C337.44 46.1875 336.98 45.5114 336.651 44.875H336.293V49H330.224ZM336.276 35.9091C336.276 37.6023 336.514 39.0852 336.991 40.358C337.48 41.6307 338.179 42.625 339.088 43.3409C340.009 44.0455 341.122 44.3977 342.429 44.3977C343.793 44.3977 344.935 44.0341 345.855 43.3068C346.776 42.5682 347.469 41.5625 347.935 40.2898C348.412 39.0057 348.651 37.5455 348.651 35.9091C348.651 34.2841 348.418 32.8409 347.952 31.5795C347.486 30.3182 346.793 29.3295 345.872 28.6136C344.952 27.8977 343.804 27.5398 342.429 27.5398C341.111 27.5398 339.991 27.8864 339.071 28.5795C338.151 29.2727 337.452 30.2443 336.974 31.4943C336.509 32.7443 336.276 34.2159 336.276 35.9091Z" fill="#292524"/>
<defs>
<clipPath id="clip0_1003_5805">
<rect y="7" width="50" height="50" rx="25" fill="white"/>
</clipPath>
</defs>
</svg>
