<svg width="304" height="67" viewBox="0 0 304 67" fill="none" xmlns="http://www.w3.org/2000/svg">
<path d="M26.8295 25.2386C26.5455 24.3182 26.1534 23.4943 25.6534 22.767C25.1648 22.0284 24.5739 21.3977 23.8807 20.875C23.1989 20.3523 22.4148 19.9602 21.5284 19.6989C20.642 19.4261 19.6761 19.2898 18.6307 19.2898C16.7557 19.2898 15.0852 19.7614 13.6193 20.7045C12.1534 21.6477 11 23.0341 10.1591 24.8636C9.32955 26.6818 8.91477 28.8977 8.91477 31.5114C8.91477 34.1477 9.32955 36.3807 10.1591 38.2102C10.9886 40.0398 12.142 41.4318 13.6193 42.3864C15.0966 43.3295 16.8125 43.8011 18.767 43.8011C20.5398 43.8011 22.0739 43.4602 23.3693 42.7784C24.6761 42.0966 25.6818 41.1307 26.3864 39.8807C27.0909 38.6193 27.4432 37.142 27.4432 35.4489L28.875 35.6705H19.3977V30.7273H33.5625V34.9205C33.5625 37.9091 32.9261 40.4943 31.6534 42.6761C30.3807 44.858 28.6307 46.5398 26.4034 47.7216C24.1761 48.892 21.6193 49.4773 18.733 49.4773C15.517 49.4773 12.6932 48.7557 10.2614 47.3125C7.84091 45.858 5.94886 43.7955 4.58523 41.125C3.23295 38.4432 2.55682 35.2614 2.55682 31.5795C2.55682 28.7614 2.95455 26.2443 3.75 24.0284C4.55682 21.8125 5.68182 19.9318 7.125 18.3864C8.56818 16.8295 10.2614 15.6477 12.2045 14.8409C14.1477 14.0227 16.2614 13.6136 18.5455 13.6136C20.4773 13.6136 22.2784 13.8977 23.9489 14.4659C25.6193 15.0227 27.1023 15.8182 28.3977 16.8523C29.7045 17.8864 30.7784 19.1136 31.6193 20.5341C32.4602 21.9545 33.0114 23.5227 33.2727 25.2386H26.8295ZM37.0048 49V22.8182H42.9878V27.1818H43.2605C43.7378 25.6705 44.556 24.5057 45.7151 23.6875C46.8855 22.858 48.2207 22.4432 49.7207 22.4432C50.0616 22.4432 50.4423 22.4602 50.8628 22.4943C51.2946 22.517 51.6526 22.5568 51.9366 22.6136V28.2898C51.6753 28.1989 51.2605 28.1193 50.6923 28.0511C50.1355 27.9716 49.5957 27.9318 49.073 27.9318C47.948 27.9318 46.9366 28.1761 46.0389 28.6648C45.1526 29.142 44.4537 29.8068 43.9423 30.6591C43.431 31.5114 43.1753 32.4943 43.1753 33.608V49H37.0048ZM60.7014 49.5284C59.0423 49.5284 57.548 49.233 56.2185 48.642C54.9003 48.0398 53.8548 47.1534 53.0821 45.983C52.3207 44.8125 51.9401 43.3693 51.9401 41.6534C51.9401 40.1761 52.2128 38.9545 52.7582 37.9886C53.3037 37.0227 54.048 36.25 54.9912 35.6705C55.9344 35.0909 56.9969 34.6534 58.1787 34.358C59.3719 34.0511 60.6048 33.8295 61.8776 33.6932C63.4116 33.5341 64.656 33.392 65.6105 33.267C66.5651 33.1307 67.2582 32.9261 67.6901 32.6534C68.1332 32.3693 68.3548 31.9318 68.3548 31.3409V31.2386C68.3548 29.9545 67.9741 28.9602 67.2128 28.2557C66.4514 27.5511 65.3548 27.1989 63.923 27.1989C62.4116 27.1989 61.2128 27.5284 60.3264 28.1875C59.4514 28.8466 58.8605 29.625 58.5537 30.5227L52.7923 29.7045C53.2469 28.1136 53.9969 26.7841 55.0423 25.7159C56.0878 24.6364 57.3662 23.8295 58.8776 23.2955C60.3889 22.75 62.0594 22.4773 63.8889 22.4773C65.1503 22.4773 66.406 22.625 67.656 22.9205C68.906 23.2159 70.048 23.7045 71.0821 24.3864C72.1162 25.0568 72.9457 25.9716 73.5707 27.1307C74.2071 28.2898 74.5253 29.7386 74.5253 31.4773V49H68.5935V45.4034H68.3889C68.0139 46.1307 67.4855 46.8125 66.8037 47.4489C66.1332 48.0739 65.2866 48.5795 64.2639 48.9659C63.2526 49.3409 62.0651 49.5284 60.7014 49.5284ZM62.3037 44.9943C63.5423 44.9943 64.6162 44.75 65.5253 44.2614C66.4344 43.7614 67.1332 43.1023 67.6219 42.2841C68.1219 41.4659 68.3719 40.5739 68.3719 39.608V36.5227C68.1787 36.6818 67.8491 36.8295 67.3832 36.9659C66.9287 37.1023 66.4173 37.2216 65.8491 37.3239C65.281 37.4261 64.7185 37.517 64.1616 37.5966C63.6048 37.6761 63.1219 37.7443 62.7128 37.8011C61.7923 37.9261 60.9685 38.1307 60.2412 38.4148C59.5139 38.6989 58.9401 39.0966 58.5196 39.608C58.0991 40.108 57.8889 40.7557 57.8889 41.5511C57.8889 42.6875 58.3037 43.5455 59.1332 44.125C59.9628 44.7045 61.0196 44.9943 62.3037 44.9943ZM78.3298 58.8182V22.8182H84.398V27.1477H84.756C85.0742 26.5114 85.523 25.8352 86.1026 25.1193C86.6821 24.392 87.4662 23.7727 88.4548 23.2614C89.4435 22.7386 90.7048 22.4773 92.2389 22.4773C94.2617 22.4773 96.0855 22.9943 97.7105 24.0284C99.3469 25.0511 100.642 26.5682 101.597 28.5795C102.563 30.5795 103.046 33.0341 103.046 35.9432C103.046 38.8182 102.574 41.2614 101.631 43.2727C100.688 45.2841 99.4037 46.8182 97.7787 47.875C96.1537 48.9318 94.3128 49.4602 92.256 49.4602C90.756 49.4602 89.5117 49.2102 88.523 48.7102C87.5344 48.2102 86.7389 47.608 86.1367 46.9034C85.5457 46.1875 85.0855 45.5114 84.756 44.875H84.5003V58.8182H78.3298ZM84.381 35.9091C84.381 37.6023 84.6196 39.0852 85.0969 40.358C85.5855 41.6307 86.2844 42.625 87.1935 43.3409C88.1139 44.0455 89.2276 44.3977 90.5344 44.3977C91.898 44.3977 93.0401 44.0341 93.9605 43.3068C94.881 42.5682 95.5742 41.5625 96.0401 40.2898C96.5173 39.0057 96.756 37.5455 96.756 35.9091C96.756 34.2841 96.523 32.8409 96.0571 31.5795C95.5912 30.3182 94.898 29.3295 93.9776 28.6136C93.0571 27.8977 91.9094 27.5398 90.5344 27.5398C89.2162 27.5398 88.0969 27.8864 87.1764 28.5795C86.256 29.2727 85.5571 30.2443 85.0798 31.4943C84.6139 32.7443 84.381 34.2159 84.381 35.9091ZM112.1 33.6591V49H105.93V14.0909H111.964V27.267H112.271C112.884 25.7898 113.833 24.625 115.117 23.7727C116.413 22.9091 118.061 22.4773 120.061 22.4773C121.879 22.4773 123.464 22.858 124.816 23.6193C126.168 24.3807 127.214 25.4943 127.953 26.9602C128.703 28.4261 129.078 30.2159 129.078 32.3295V49H122.907V33.2841C122.907 31.5227 122.453 30.1534 121.543 29.1761C120.646 28.1875 119.384 27.6932 117.759 27.6932C116.668 27.6932 115.691 27.9318 114.828 28.4091C113.975 28.875 113.305 29.5511 112.816 30.4375C112.339 31.3239 112.1 32.3977 112.1 33.6591ZM132.967 49V22.8182H139.138V49H132.967ZM136.07 19.1023C135.092 19.1023 134.251 18.7784 133.547 18.1307C132.842 17.4716 132.49 16.6818 132.49 15.7614C132.49 14.8295 132.842 14.0398 133.547 13.392C134.251 12.733 135.092 12.4034 136.07 12.4034C137.058 12.4034 137.899 12.733 138.592 13.392C139.297 14.0398 139.649 14.8295 139.649 15.7614C139.649 16.6818 139.297 17.4716 138.592 18.1307C137.899 18.7784 137.058 19.1023 136.07 19.1023ZM148.128 22.8182L153.413 32.483L158.782 22.8182H165.31L157.418 35.9091L165.447 49H158.952L153.413 39.5739L147.924 49H141.378L149.356 35.9091L141.583 22.8182H148.128ZM196.636 25.8693H190.261C190.08 24.8239 189.744 23.8977 189.256 23.0909C188.767 22.2727 188.159 21.5795 187.432 21.0114C186.705 20.4432 185.875 20.017 184.943 19.733C184.023 19.4375 183.028 19.2898 181.96 19.2898C180.063 19.2898 178.381 19.767 176.915 20.7216C175.449 21.6648 174.301 23.0511 173.472 24.8807C172.642 26.6989 172.227 28.9205 172.227 31.5455C172.227 34.2159 172.642 36.4659 173.472 38.2955C174.313 40.1136 175.46 41.4886 176.915 42.4205C178.381 43.3409 180.057 43.8011 181.943 43.8011C182.989 43.8011 183.966 43.6648 184.875 43.392C185.795 43.108 186.619 42.6932 187.347 42.1477C188.085 41.6023 188.705 40.9318 189.205 40.1364C189.716 39.3409 190.068 38.4318 190.261 37.4091L196.636 37.4432C196.398 39.1023 195.881 40.6591 195.085 42.1136C194.301 43.5682 193.273 44.8523 192 45.9659C190.727 47.0682 189.239 47.9318 187.534 48.5568C185.83 49.1705 183.938 49.4773 181.858 49.4773C178.79 49.4773 176.051 48.767 173.642 47.3466C171.233 45.9261 169.335 43.875 167.949 41.1932C166.563 38.5114 165.869 35.2955 165.869 31.5455C165.869 27.7841 166.568 24.5682 167.966 21.8977C169.364 19.2159 171.267 17.1648 173.676 15.7443C176.085 14.3239 178.813 13.6136 181.858 13.6136C183.801 13.6136 185.608 13.8864 187.278 14.4318C188.949 14.9773 190.438 15.7784 191.744 16.8352C193.051 17.8807 194.125 19.1648 194.966 20.6875C195.818 22.1989 196.375 23.9261 196.636 25.8693ZM211.175 49.5114C208.618 49.5114 206.403 48.9489 204.528 47.8239C202.653 46.6989 201.198 45.125 200.164 43.1023C199.141 41.0795 198.63 38.7159 198.63 36.0114C198.63 33.3068 199.141 30.9375 200.164 28.9034C201.198 26.8693 202.653 25.2898 204.528 24.1648C206.403 23.0398 208.618 22.4773 211.175 22.4773C213.732 22.4773 215.948 23.0398 217.823 24.1648C219.698 25.2898 221.147 26.8693 222.17 28.9034C223.204 30.9375 223.721 33.3068 223.721 36.0114C223.721 38.7159 223.204 41.0795 222.17 43.1023C221.147 45.125 219.698 46.6989 217.823 47.8239C215.948 48.9489 213.732 49.5114 211.175 49.5114ZM211.209 44.5682C212.596 44.5682 213.755 44.1875 214.687 43.4261C215.618 42.6534 216.312 41.6193 216.766 40.3239C217.232 39.0284 217.465 37.5852 217.465 35.9943C217.465 34.392 217.232 32.9432 216.766 31.6477C216.312 30.3409 215.618 29.3011 214.687 28.5284C213.755 27.7557 212.596 27.3693 211.209 27.3693C209.789 27.3693 208.607 27.7557 207.664 28.5284C206.732 29.3011 206.033 30.3409 205.567 31.6477C205.113 32.9432 204.886 34.392 204.886 35.9943C204.886 37.5852 205.113 39.0284 205.567 40.3239C206.033 41.6193 206.732 42.6534 207.664 43.4261C208.607 44.1875 209.789 44.5682 211.209 44.5682ZM232.728 14.0909V49H226.558V14.0909H232.728ZM242.844 14.0909V49H236.674V14.0909H242.844ZM254.323 49.5284C252.664 49.5284 251.17 49.233 249.84 48.642C248.522 48.0398 247.477 47.1534 246.704 45.983C245.943 44.8125 245.562 43.3693 245.562 41.6534C245.562 40.1761 245.835 38.9545 246.38 37.9886C246.926 37.0227 247.67 36.25 248.613 35.6705C249.556 35.0909 250.619 34.6534 251.801 34.358C252.994 34.0511 254.227 33.8295 255.499 33.6932C257.034 33.5341 258.278 33.392 259.232 33.267C260.187 33.1307 260.88 32.9261 261.312 32.6534C261.755 32.3693 261.977 31.9318 261.977 31.3409V31.2386C261.977 29.9545 261.596 28.9602 260.835 28.2557C260.073 27.5511 258.977 27.1989 257.545 27.1989C256.034 27.1989 254.835 27.5284 253.948 28.1875C253.073 28.8466 252.482 29.625 252.176 30.5227L246.414 29.7045C246.869 28.1136 247.619 26.7841 248.664 25.7159C249.71 24.6364 250.988 23.8295 252.499 23.2955C254.011 22.75 255.681 22.4773 257.511 22.4773C258.772 22.4773 260.028 22.625 261.278 22.9205C262.528 23.2159 263.67 23.7045 264.704 24.3864C265.738 25.0568 266.568 25.9716 267.193 27.1307C267.829 28.2898 268.147 29.7386 268.147 31.4773V49H262.215V45.4034H262.011C261.636 46.1307 261.107 46.8125 260.426 47.4489C259.755 48.0739 258.909 48.5795 257.886 48.9659C256.874 49.3409 255.687 49.5284 254.323 49.5284ZM255.926 44.9943C257.164 44.9943 258.238 44.75 259.147 44.2614C260.056 43.7614 260.755 43.1023 261.244 42.2841C261.744 41.4659 261.994 40.5739 261.994 39.608V36.5227C261.801 36.6818 261.471 36.8295 261.005 36.9659C260.551 37.1023 260.039 37.2216 259.471 37.3239C258.903 37.4261 258.34 37.517 257.784 37.5966C257.227 37.6761 256.744 37.7443 256.335 37.8011C255.414 37.9261 254.59 38.1307 253.863 38.4148C253.136 38.6989 252.562 39.0966 252.141 39.608C251.721 40.108 251.511 40.7557 251.511 41.5511C251.511 42.6875 251.926 43.5455 252.755 44.125C253.585 44.7045 254.641 44.9943 255.926 44.9943ZM272.224 49V14.0909H278.395V27.1477H278.651C278.969 26.5114 279.418 25.8352 279.997 25.1193C280.577 24.392 281.361 23.7727 282.349 23.2614C283.338 22.7386 284.599 22.4773 286.134 22.4773C288.156 22.4773 289.98 22.9943 291.605 24.0284C293.241 25.0511 294.537 26.5682 295.491 28.5795C296.457 30.5795 296.94 33.0341 296.94 35.9432C296.94 38.8182 296.469 41.2614 295.526 43.2727C294.582 45.2841 293.298 46.8182 291.673 47.875C290.048 48.9318 288.207 49.4602 286.151 49.4602C284.651 49.4602 283.406 49.2102 282.418 48.7102C281.429 48.2102 280.634 47.608 280.031 46.9034C279.44 46.1875 278.98 45.5114 278.651 44.875H278.293V49H272.224ZM278.276 35.9091C278.276 37.6023 278.514 39.0852 278.991 40.358C279.48 41.6307 280.179 42.625 281.088 43.3409C282.009 44.0455 283.122 44.3977 284.429 44.3977C285.793 44.3977 286.935 44.0341 287.855 43.3068C288.776 42.5682 289.469 41.5625 289.935 40.2898C290.412 39.0057 290.651 37.5455 290.651 35.9091C290.651 34.2841 290.418 32.8409 289.952 31.5795C289.486 30.3182 288.793 29.3295 287.872 28.6136C286.952 27.8977 285.804 27.5398 284.429 27.5398C283.111 27.5398 281.991 27.8864 281.071 28.5795C280.151 29.2727 279.452 30.2443 278.974 31.4943C278.509 32.7443 278.276 34.2159 278.276 35.9091Z" fill="#292524"/>
<rect x="6" y="53" width="12" height="12" rx="6" fill="#00AAD2"/>
<rect x="21" y="53" width="12" height="12" rx="6" fill="#D40072"/>
<rect x="36" y="53" width="12" height="12" rx="6" fill="#EDB700"/>
<rect x="51" y="53" width="12" height="12" rx="6" fill="#292524"/>
</svg>
